<svg width="12" height="19" viewBox="0 0 12 19" fill="none" xmlns="http://www.w3.org/2000/svg">
    <path d="M10 18.9999C9.86839 19.0007 9.73793 18.9755 9.61609 18.9257C9.49426 18.8759 9.38344 18.8026 9.29 18.7099L1.29 10.7099C1.19627 10.617 1.12188 10.5064 1.07111 10.3845C1.02034 10.2627 0.994202 10.132 0.994202 9.99994C0.994202 9.86793 1.02034 9.73722 1.07111 9.61537C1.12188 9.49351 1.19627 9.38291 1.29 9.28994L9.29 1.28994C9.4783 1.10164 9.7337 0.99585 10 0.99585C10.2663 0.99585 10.5217 1.10164 10.71 1.28994C10.8983 1.47825 11.0041 1.73364 11.0041 1.99994C11.0041 2.26624 10.8983 2.52164 10.71 2.70994L3.41 9.99994L10.71 17.2899C10.8037 17.3829 10.8781 17.4935 10.9289 17.6154C10.9797 17.7372 11.0058 17.8679 11.0058 17.9999C11.0058 18.132 10.9797 18.2627 10.9289 18.3845C10.8781 18.5064 10.8037 18.617 10.71 18.7099C10.6166 18.8026 10.5057 18.8759 10.3839 18.9257C10.2621 18.9755 10.1316 19.0007 10 18.9999Z" fill="#251201"/>
</svg>
